<svg id="visual" viewBox="0 0 960 200" width="960" height="200" xmlns="http://www.w3.org/2000/svg" xmlns:xlink="http://www.w3.org/1999/xlink" version="1.1"><rect x="0" y="0" width="960" height="200" fill="#ff5733"></rect><path d="M0 91L8.8 92.3C17.7 93.7 35.3 96.3 53.2 94.5C71 92.7 89 86.3 106.8 79.2C124.7 72 142.3 64 160 57C177.7 50 195.3 44 213.2 39C231 34 249 30 266.8 31.8C284.7 33.7 302.3 41.3 320 52C337.7 62.7 355.3 76.3 373.2 83.5C391 90.7 409 91.3 426.8 91C444.7 90.7 462.3 89.3 480 81.5C497.7 73.7 515.3 59.3 533.2 54.5C551 49.7 569 54.3 586.8 64.3C604.7 74.3 622.3 89.7 640 90C657.7 90.3 675.3 75.7 693.2 68.7C711 61.7 729 62.3 746.8 62.3C764.7 62.3 782.3 61.7 800 62.5C817.7 63.3 835.3 65.7 853.2 73.2C871 80.7 889 93.3 906.8 94.3C924.7 95.3 942.3 84.7 951.2 79.3L960 74L960 201L951.2 201C942.3 201 924.7 201 906.8 201C889 201 871 201 853.2 201C835.3 201 817.7 201 800 201C782.3 201 764.7 201 746.8 201C729 201 711 201 693.2 201C675.3 201 657.7 201 640 201C622.3 201 604.7 201 586.8 201C569 201 551 201 533.2 201C515.3 201 497.7 201 480 201C462.3 201 444.7 201 426.8 201C409 201 391 201 373.2 201C355.3 201 337.7 201 320 201C302.3 201 284.7 201 266.8 201C249 201 231 201 213.2 201C195.3 201 177.7 201 160 201C142.3 201 124.7 201 106.8 201C89 201 71 201 53.2 201C35.3 201 17.7 201 8.8 201L0 201Z" fill="#ff5733"></path><path d="M0 84L8.8 90.2C17.7 96.3 35.3 108.7 53.2 108.2C71 107.7 89 94.3 106.8 91.7C124.7 89 142.3 97 160 101.3C177.7 105.7 195.3 106.3 213.2 109.3C231 112.3 249 117.7 266.8 116.5C284.7 115.3 302.3 107.7 320 97.8C337.7 88 355.3 76 373.2 71.7C391 67.3 409 70.7 426.8 79.8C444.7 89 462.3 104 480 106.7C497.7 109.3 515.3 99.7 533.2 99C551 98.3 569 106.7 586.8 108.8C604.7 111 622.3 107 640 106.3C657.7 105.7 675.3 108.3 693.2 112C711 115.7 729 120.3 746.8 114.8C764.7 109.3 782.3 93.7 800 91.7C817.7 89.7 835.3 101.3 853.2 103.8C871 106.3 889 99.7 906.8 100C924.7 100.3 942.3 107.7 951.2 111.3L960 115L960 201L951.2 201C942.3 201 924.7 201 906.8 201C889 201 871 201 853.2 201C835.3 201 817.7 201 800 201C782.3 201 764.7 201 746.8 201C729 201 711 201 693.2 201C675.3 201 657.7 201 640 201C622.3 201 604.7 201 586.8 201C569 201 551 201 533.2 201C515.3 201 497.7 201 480 201C462.3 201 444.7 201 426.8 201C409 201 391 201 373.2 201C355.3 201 337.7 201 320 201C302.3 201 284.7 201 266.8 201C249 201 231 201 213.2 201C195.3 201 177.7 201 160 201C142.3 201 124.7 201 106.8 201C89 201 71 201 53.2 201C35.3 201 17.7 201 8.8 201L0 201Z" fill="#de3748"></path><path d="M0 102L8.8 103.2C17.7 104.3 35.3 106.7 53.2 114C71 121.3 89 133.7 106.8 134.8C124.7 136 142.3 126 160 125.3C177.7 124.7 195.3 133.3 213.2 131.7C231 130 249 118 266.8 111.7C284.7 105.3 302.3 104.7 320 102.3C337.7 100 355.3 96 373.2 98.2C391 100.3 409 108.7 426.8 112.2C444.7 115.7 462.3 114.3 480 115C497.7 115.7 515.3 118.3 533.2 115.2C551 112 569 103 586.8 103.8C604.7 104.7 622.3 115.3 640 114.8C657.7 114.3 675.3 102.7 693.2 103C711 103.3 729 115.7 746.8 117C764.7 118.3 782.3 108.7 800 104.5C817.7 100.3 835.3 101.7 853.2 108.3C871 115 889 127 906.8 130.3C924.7 133.7 942.3 128.3 951.2 125.7L960 123L960 201L951.2 201C942.3 201 924.7 201 906.8 201C889 201 871 201 853.2 201C835.3 201 817.7 201 800 201C782.3 201 764.7 201 746.8 201C729 201 711 201 693.2 201C675.3 201 657.7 201 640 201C622.3 201 604.7 201 586.8 201C569 201 551 201 533.2 201C515.3 201 497.7 201 480 201C462.3 201 444.7 201 426.8 201C409 201 391 201 373.2 201C355.3 201 337.7 201 320 201C302.3 201 284.7 201 266.8 201C249 201 231 201 213.2 201C195.3 201 177.7 201 160 201C142.3 201 124.7 201 106.8 201C89 201 71 201 53.2 201C35.3 201 17.7 201 8.8 201L0 201Z" fill="#b42351"></path><path d="M0 149L8.8 150.7C17.7 152.3 35.3 155.7 53.2 153.7C71 151.7 89 144.3 106.8 143C124.7 141.7 142.3 146.3 160 148.8C177.7 151.3 195.3 151.7 213.2 151.7C231 151.7 249 151.3 266.8 145.5C284.7 139.7 302.3 128.3 320 126C337.7 123.7 355.3 130.3 373.2 138.3C391 146.3 409 155.7 426.8 156.5C444.7 157.3 462.3 149.7 480 144.5C497.7 139.3 515.3 136.7 533.2 133C551 129.3 569 124.7 586.8 125.2C604.7 125.7 622.3 131.3 640 136.2C657.7 141 675.3 145 693.2 146.5C711 148 729 147 746.8 148.3C764.7 149.7 782.3 153.3 800 150.2C817.7 147 835.3 137 853.2 133.2C871 129.3 889 131.7 906.8 131.2C924.7 130.7 942.3 127.3 951.2 125.7L960 124L960 201L951.2 201C942.3 201 924.7 201 906.8 201C889 201 871 201 853.2 201C835.3 201 817.7 201 800 201C782.3 201 764.7 201 746.8 201C729 201 711 201 693.2 201C675.3 201 657.7 201 640 201C622.3 201 604.7 201 586.8 201C569 201 551 201 533.2 201C515.3 201 497.7 201 480 201C462.3 201 444.7 201 426.8 201C409 201 391 201 373.2 201C355.3 201 337.7 201 320 201C302.3 201 284.7 201 266.8 201C249 201 231 201 213.2 201C195.3 201 177.7 201 160 201C142.3 201 124.7 201 106.8 201C89 201 71 201 53.2 201C35.3 201 17.7 201 8.8 201L0 201Z" fill="#851c50"></path><path d="M0 151L8.8 151.8C17.7 152.7 35.3 154.3 53.2 158.5C71 162.7 89 169.3 106.8 172.8C124.7 176.3 142.3 176.7 160 177C177.7 177.3 195.3 177.7 213.2 176.3C231 175 249 172 266.8 168C284.7 164 302.3 159 320 160C337.7 161 355.3 168 373.2 168C391 168 409 161 426.8 160.5C444.7 160 462.3 166 480 166.7C497.7 167.3 515.3 162.7 533.2 163.5C551 164.3 569 170.7 586.8 174.2C604.7 177.7 622.3 178.3 640 178.2C657.7 178 675.3 177 693.2 172.2C711 167.3 729 158.7 746.8 158.2C764.7 157.7 782.3 165.3 800 166.7C817.7 168 835.3 163 853.2 163C871 163 889 168 906.8 166.5C924.7 165 942.3 157 951.2 153L960 149L960 201L951.2 201C942.3 201 924.7 201 906.8 201C889 201 871 201 853.2 201C835.3 201 817.7 201 800 201C782.3 201 764.7 201 746.8 201C729 201 711 201 693.2 201C675.3 201 657.7 201 640 201C622.3 201 604.7 201 586.8 201C569 201 551 201 533.2 201C515.3 201 497.7 201 480 201C462.3 201 444.7 201 426.8 201C409 201 391 201 373.2 201C355.3 201 337.7 201 320 201C302.3 201 284.7 201 266.8 201C249 201 231 201 213.2 201C195.3 201 177.7 201 160 201C142.3 201 124.7 201 106.8 201C89 201 71 201 53.2 201C35.3 201 17.7 201 8.8 201L0 201Z" fill="#571845"></path></svg>