<svg id="visual" viewBox="0 0 960 200" width="960" height="200" xmlns="http://www.w3.org/2000/svg" xmlns:xlink="http://www.w3.org/1999/xlink" version="1.1"><rect x="0" y="0" width="960" height="200" fill="#571845"></rect><path d="M0 61L8.8 63.7C17.7 66.3 35.3 71.7 53.2 73.8C71 76 89 75 106.8 78.3C124.7 81.7 142.3 89.3 160 84.3C177.7 79.3 195.3 61.7 213.2 61.7C231 61.7 249 79.3 266.8 80.8C284.7 82.3 302.3 67.7 320 68.2C337.7 68.7 355.3 84.3 373.2 90.2C391 96 409 92 426.8 80.8C444.7 69.7 462.3 51.3 480 43.2C497.7 35 515.3 37 533.2 47.7C551 58.3 569 77.7 586.8 87C604.7 96.3 622.3 95.7 640 97C657.7 98.3 675.3 101.7 693.2 95.3C711 89 729 73 746.8 65.8C764.7 58.7 782.3 60.3 800 63.8C817.7 67.3 835.3 72.7 853.2 78.5C871 84.3 889 90.7 906.8 83.3C924.7 76 942.3 55 951.2 44.5L960 34L960 201L951.2 201C942.3 201 924.7 201 906.8 201C889 201 871 201 853.2 201C835.3 201 817.7 201 800 201C782.3 201 764.7 201 746.8 201C729 201 711 201 693.2 201C675.3 201 657.7 201 640 201C622.3 201 604.7 201 586.8 201C569 201 551 201 533.2 201C515.3 201 497.7 201 480 201C462.3 201 444.7 201 426.8 201C409 201 391 201 373.2 201C355.3 201 337.7 201 320 201C302.3 201 284.7 201 266.8 201C249 201 231 201 213.2 201C195.3 201 177.7 201 160 201C142.3 201 124.7 201 106.8 201C89 201 71 201 53.2 201C35.3 201 17.7 201 8.8 201L0 201Z" fill="#571845"></path><path d="M0 76L8.8 75.2C17.7 74.3 35.3 72.7 53.2 74.2C71 75.7 89 80.3 106.8 83.3C124.7 86.3 142.3 87.7 160 82.7C177.7 77.7 195.3 66.3 213.2 70.7C231 75 249 95 266.8 106C284.7 117 302.3 119 320 111.3C337.7 103.7 355.3 86.3 373.2 83.8C391 81.3 409 93.7 426.8 95.3C444.7 97 462.3 88 480 79.2C497.7 70.3 515.3 61.7 533.2 58.2C551 54.7 569 56.3 586.8 60.5C604.7 64.7 622.3 71.3 640 80.7C657.7 90 675.3 102 693.2 106.8C711 111.7 729 109.3 746.8 107.2C764.7 105 782.3 103 800 96.5C817.7 90 835.3 79 853.2 74.2C871 69.3 889 70.7 906.8 79.3C924.7 88 942.3 104 951.2 112L960 120L960 201L951.2 201C942.3 201 924.7 201 906.8 201C889 201 871 201 853.2 201C835.3 201 817.7 201 800 201C782.3 201 764.7 201 746.8 201C729 201 711 201 693.2 201C675.3 201 657.7 201 640 201C622.3 201 604.7 201 586.8 201C569 201 551 201 533.2 201C515.3 201 497.7 201 480 201C462.3 201 444.7 201 426.8 201C409 201 391 201 373.2 201C355.3 201 337.7 201 320 201C302.3 201 284.7 201 266.8 201C249 201 231 201 213.2 201C195.3 201 177.7 201 160 201C142.3 201 124.7 201 106.8 201C89 201 71 201 53.2 201C35.3 201 17.7 201 8.8 201L0 201Z" fill="#611646"></path><path d="M0 118L8.8 111.5C17.7 105 35.3 92 53.2 88.7C71 85.3 89 91.7 106.8 93.7C124.7 95.7 142.3 93.3 160 90C177.7 86.7 195.3 82.3 213.2 89.7C231 97 249 116 266.8 120.3C284.7 124.7 302.3 114.3 320 114.5C337.7 114.7 355.3 125.3 373.2 120.2C391 115 409 94 426.8 91.8C444.7 89.7 462.3 106.3 480 112.2C497.7 118 515.3 113 533.2 112.5C551 112 569 116 586.8 112.8C604.7 109.7 622.3 99.3 640 99.7C657.7 100 675.3 111 693.2 114C711 117 729 112 746.8 114C764.7 116 782.3 125 800 128.3C817.7 131.7 835.3 129.3 853.2 119.5C871 109.7 889 92.3 906.8 90.2C924.7 88 942.3 101 951.2 107.5L960 114L960 201L951.2 201C942.3 201 924.7 201 906.8 201C889 201 871 201 853.2 201C835.3 201 817.7 201 800 201C782.3 201 764.7 201 746.8 201C729 201 711 201 693.2 201C675.3 201 657.7 201 640 201C622.3 201 604.7 201 586.8 201C569 201 551 201 533.2 201C515.3 201 497.7 201 480 201C462.3 201 444.7 201 426.8 201C409 201 391 201 373.2 201C355.3 201 337.7 201 320 201C302.3 201 284.7 201 266.8 201C249 201 231 201 213.2 201C195.3 201 177.7 201 160 201C142.3 201 124.7 201 106.8 201C89 201 71 201 53.2 201C35.3 201 17.7 201 8.8 201L0 201Z" fill="#6a1446"></path><path d="M0 105L8.8 110.8C17.7 116.7 35.3 128.3 53.2 133.5C71 138.7 89 137.3 106.8 131.3C124.7 125.3 142.3 114.7 160 110.2C177.7 105.7 195.3 107.3 213.2 112C231 116.7 249 124.3 266.8 125C284.7 125.7 302.3 119.3 320 115.2C337.7 111 355.3 109 373.2 113.3C391 117.7 409 128.3 426.8 130.2C444.7 132 462.3 125 480 124.3C497.7 123.7 515.3 129.3 533.2 129.5C551 129.7 569 124.3 586.8 121.8C604.7 119.3 622.3 119.7 640 121.2C657.7 122.7 675.3 125.3 693.2 125.8C711 126.3 729 124.7 746.8 127.3C764.7 130 782.3 137 800 140.8C817.7 144.7 835.3 145.3 853.2 146.2C871 147 889 148 906.8 140.5C924.7 133 942.3 117 951.2 109L960 101L960 201L951.2 201C942.3 201 924.7 201 906.8 201C889 201 871 201 853.2 201C835.3 201 817.7 201 800 201C782.3 201 764.7 201 746.8 201C729 201 711 201 693.2 201C675.3 201 657.7 201 640 201C622.3 201 604.7 201 586.8 201C569 201 551 201 533.2 201C515.3 201 497.7 201 480 201C462.3 201 444.7 201 426.8 201C409 201 391 201 373.2 201C355.3 201 337.7 201 320 201C302.3 201 284.7 201 266.8 201C249 201 231 201 213.2 201C195.3 201 177.7 201 160 201C142.3 201 124.7 201 106.8 201C89 201 71 201 53.2 201C35.3 201 17.7 201 8.8 201L0 201Z" fill="#741245"></path><path d="M0 132L8.8 134.5C17.7 137 35.3 142 53.2 144.8C71 147.7 89 148.3 106.8 145.5C124.7 142.7 142.3 136.3 160 134.8C177.7 133.3 195.3 136.7 213.2 139.2C231 141.7 249 143.3 266.8 139.7C284.7 136 302.3 127 320 125.8C337.7 124.7 355.3 131.3 373.2 136.2C391 141 409 144 426.8 140.3C444.7 136.7 462.3 126.3 480 125C497.7 123.7 515.3 131.3 533.2 134.8C551 138.3 569 137.7 586.8 134.2C604.7 130.7 622.3 124.3 640 126C657.7 127.7 675.3 137.3 693.2 141.8C711 146.3 729 145.7 746.8 143.8C764.7 142 782.3 139 800 136.3C817.7 133.7 835.3 131.3 853.2 135.5C871 139.7 889 150.3 906.8 154.2C924.7 158 942.3 155 951.2 153.5L960 152L960 201L951.2 201C942.3 201 924.7 201 906.8 201C889 201 871 201 853.2 201C835.3 201 817.7 201 800 201C782.3 201 764.7 201 746.8 201C729 201 711 201 693.2 201C675.3 201 657.7 201 640 201C622.3 201 604.7 201 586.8 201C569 201 551 201 533.2 201C515.3 201 497.7 201 480 201C462.3 201 444.7 201 426.8 201C409 201 391 201 373.2 201C355.3 201 337.7 201 320 201C302.3 201 284.7 201 266.8 201C249 201 231 201 213.2 201C195.3 201 177.7 201 160 201C142.3 201 124.7 201 106.8 201C89 201 71 201 53.2 201C35.3 201 17.7 201 8.8 201L0 201Z" fill="#7e1043"></path><path d="M0 167L8.8 164.2C17.7 161.3 35.3 155.7 53.2 151.8C71 148 89 146 106.8 148.5C124.7 151 142.3 158 160 157.8C177.7 157.7 195.3 150.3 213.2 150.3C231 150.3 249 157.7 266.8 162.5C284.7 167.3 302.3 169.7 320 167.8C337.7 166 355.3 160 373.2 159.8C391 159.7 409 165.3 426.8 163.2C444.7 161 462.3 151 480 148.7C497.7 146.3 515.3 151.7 533.2 151.2C551 150.7 569 144.3 586.8 143.2C604.7 142 622.3 146 640 148C657.7 150 675.3 150 693.2 153.5C711 157 729 164 746.8 167.2C764.7 170.3 782.3 169.7 800 166.2C817.7 162.7 835.3 156.3 853.2 153.3C871 150.3 889 150.7 906.8 153.5C924.7 156.3 942.3 161.7 951.2 164.3L960 167L960 201L951.2 201C942.3 201 924.7 201 906.8 201C889 201 871 201 853.2 201C835.3 201 817.7 201 800 201C782.3 201 764.7 201 746.8 201C729 201 711 201 693.2 201C675.3 201 657.7 201 640 201C622.3 201 604.7 201 586.8 201C569 201 551 201 533.2 201C515.3 201 497.7 201 480 201C462.3 201 444.7 201 426.8 201C409 201 391 201 373.2 201C355.3 201 337.7 201 320 201C302.3 201 284.7 201 266.8 201C249 201 231 201 213.2 201C195.3 201 177.7 201 160 201C142.3 201 124.7 201 106.8 201C89 201 71 201 53.2 201C35.3 201 17.7 201 8.8 201L0 201Z" fill="#870d41"></path><path d="M0 181L8.8 181.2C17.7 181.3 35.3 181.7 53.2 182C71 182.3 89 182.7 106.8 179.7C124.7 176.7 142.3 170.3 160 166.7C177.7 163 195.3 162 213.2 163.7C231 165.3 249 169.7 266.8 172.3C284.7 175 302.3 176 320 175.8C337.7 175.7 355.3 174.3 373.2 175.5C391 176.7 409 180.3 426.8 178.8C444.7 177.3 462.3 170.7 480 170.3C497.7 170 515.3 176 533.2 177.3C551 178.7 569 175.3 586.8 175C604.7 174.7 622.3 177.3 640 178.3C657.7 179.3 675.3 178.7 693.2 176.3C711 174 729 170 746.8 171.5C764.7 173 782.3 180 800 183.7C817.7 187.3 835.3 187.7 853.2 187.7C871 187.7 889 187.3 906.8 187C924.7 186.7 942.3 186.3 951.2 186.2L960 186L960 201L951.2 201C942.3 201 924.7 201 906.8 201C889 201 871 201 853.2 201C835.3 201 817.7 201 800 201C782.3 201 764.7 201 746.8 201C729 201 711 201 693.2 201C675.3 201 657.7 201 640 201C622.3 201 604.7 201 586.8 201C569 201 551 201 533.2 201C515.3 201 497.7 201 480 201C462.3 201 444.7 201 426.8 201C409 201 391 201 373.2 201C355.3 201 337.7 201 320 201C302.3 201 284.7 201 266.8 201C249 201 231 201 213.2 201C195.3 201 177.7 201 160 201C142.3 201 124.7 201 106.8 201C89 201 71 201 53.2 201C35.3 201 17.7 201 8.8 201L0 201Z" fill="#900c3e"></path></svg>