<svg id="visual" viewBox="0 0 960 200" width="960" height="200" xmlns="http://www.w3.org/2000/svg" xmlns:xlink="http://www.w3.org/1999/xlink" version="1.1"><rect x="0" y="0" width="960" height="200" fill="#ff5733"></rect><path d="M0 87L8.8 90.7C17.7 94.3 35.3 101.7 53.2 98.2C71 94.7 89 80.3 106.8 76.3C124.7 72.3 142.3 78.7 160 85.7C177.7 92.7 195.3 100.3 213.2 98.7C231 97 249 86 266.8 76.7C284.7 67.3 302.3 59.7 320 63.5C337.7 67.3 355.3 82.7 373.2 91.5C391 100.3 409 102.7 426.8 92.8C444.7 83 462.3 61 480 49.3C497.7 37.7 515.3 36.3 533.2 39.7C551 43 569 51 586.8 61.3C604.7 71.7 622.3 84.3 640 90.2C657.7 96 675.3 95 693.2 96C711 97 729 100 746.8 98.5C764.7 97 782.3 91 800 81.2C817.7 71.3 835.3 57.7 853.2 52.5C871 47.3 889 50.7 906.8 49.3C924.7 48 942.3 42 951.2 39L960 36L960 201L951.2 201C942.3 201 924.7 201 906.8 201C889 201 871 201 853.2 201C835.3 201 817.7 201 800 201C782.3 201 764.7 201 746.8 201C729 201 711 201 693.2 201C675.3 201 657.7 201 640 201C622.3 201 604.7 201 586.8 201C569 201 551 201 533.2 201C515.3 201 497.7 201 480 201C462.3 201 444.7 201 426.8 201C409 201 391 201 373.2 201C355.3 201 337.7 201 320 201C302.3 201 284.7 201 266.8 201C249 201 231 201 213.2 201C195.3 201 177.7 201 160 201C142.3 201 124.7 201 106.8 201C89 201 71 201 53.2 201C35.3 201 17.7 201 8.8 201L0 201Z" fill="#ff5733"></path><path d="M0 95L8.8 94.5C17.7 94 35.3 93 53.2 90.5C71 88 89 84 106.8 83.8C124.7 83.7 142.3 87.3 160 89C177.7 90.7 195.3 90.3 213.2 84.3C231 78.3 249 66.7 266.8 71C284.7 75.3 302.3 95.7 320 94.8C337.7 94 355.3 72 373.2 68.7C391 65.3 409 80.7 426.8 88.7C444.7 96.7 462.3 97.3 480 96.2C497.7 95 515.3 92 533.2 84.2C551 76.3 569 63.7 586.8 59C604.7 54.3 622.3 57.7 640 63.3C657.7 69 675.3 77 693.2 86.2C711 95.3 729 105.7 746.8 104.8C764.7 104 782.3 92 800 88.3C817.7 84.7 835.3 89.3 853.2 87.7C871 86 889 78 906.8 83C924.7 88 942.3 106 951.2 115L960 124L960 201L951.2 201C942.3 201 924.7 201 906.8 201C889 201 871 201 853.2 201C835.3 201 817.7 201 800 201C782.3 201 764.7 201 746.8 201C729 201 711 201 693.2 201C675.3 201 657.7 201 640 201C622.3 201 604.7 201 586.8 201C569 201 551 201 533.2 201C515.3 201 497.7 201 480 201C462.3 201 444.7 201 426.8 201C409 201 391 201 373.2 201C355.3 201 337.7 201 320 201C302.3 201 284.7 201 266.8 201C249 201 231 201 213.2 201C195.3 201 177.7 201 160 201C142.3 201 124.7 201 106.8 201C89 201 71 201 53.2 201C35.3 201 17.7 201 8.8 201L0 201Z" fill="#ef4739"></path><path d="M0 110L8.8 107.7C17.7 105.3 35.3 100.7 53.2 101.5C71 102.3 89 108.7 106.8 112.2C124.7 115.7 142.3 116.3 160 116.5C177.7 116.7 195.3 116.3 213.2 118.2C231 120 249 124 266.8 120.3C284.7 116.7 302.3 105.3 320 96.3C337.7 87.3 355.3 80.7 373.2 80.3C391 80 409 86 426.8 90.7C444.7 95.3 462.3 98.7 480 102C497.7 105.3 515.3 108.7 533.2 109.8C551 111 569 110 586.8 106.8C604.7 103.7 622.3 98.3 640 96.8C657.7 95.3 675.3 97.7 693.2 100.2C711 102.7 729 105.3 746.8 107.2C764.7 109 782.3 110 800 108C817.7 106 835.3 101 853.2 99C871 97 889 98 906.8 101.8C924.7 105.7 942.3 112.3 951.2 115.7L960 119L960 201L951.2 201C942.3 201 924.7 201 906.8 201C889 201 871 201 853.2 201C835.3 201 817.7 201 800 201C782.3 201 764.7 201 746.8 201C729 201 711 201 693.2 201C675.3 201 657.7 201 640 201C622.3 201 604.7 201 586.8 201C569 201 551 201 533.2 201C515.3 201 497.7 201 480 201C462.3 201 444.7 201 426.8 201C409 201 391 201 373.2 201C355.3 201 337.7 201 320 201C302.3 201 284.7 201 266.8 201C249 201 231 201 213.2 201C195.3 201 177.7 201 160 201C142.3 201 124.7 201 106.8 201C89 201 71 201 53.2 201C35.3 201 17.7 201 8.8 201L0 201Z" fill="#dd393d"></path><path d="M0 129L8.8 131C17.7 133 35.3 137 53.2 134.8C71 132.7 89 124.3 106.8 117.8C124.7 111.3 142.3 106.7 160 112.2C177.7 117.7 195.3 133.3 213.2 135.3C231 137.3 249 125.7 266.8 119C284.7 112.3 302.3 110.7 320 109C337.7 107.3 355.3 105.7 373.2 111.8C391 118 409 132 426.8 135.5C444.7 139 462.3 132 480 125.8C497.7 119.7 515.3 114.3 533.2 112.2C551 110 569 111 586.8 112C604.7 113 622.3 114 640 115.2C657.7 116.3 675.3 117.7 693.2 118C711 118.3 729 117.7 746.8 120.3C764.7 123 782.3 129 800 127C817.7 125 835.3 115 853.2 113.3C871 111.7 889 118.3 906.8 125.2C924.7 132 942.3 139 951.2 142.5L960 146L960 201L951.2 201C942.3 201 924.7 201 906.8 201C889 201 871 201 853.2 201C835.3 201 817.7 201 800 201C782.3 201 764.7 201 746.8 201C729 201 711 201 693.2 201C675.3 201 657.7 201 640 201C622.3 201 604.7 201 586.8 201C569 201 551 201 533.2 201C515.3 201 497.7 201 480 201C462.3 201 444.7 201 426.8 201C409 201 391 201 373.2 201C355.3 201 337.7 201 320 201C302.3 201 284.7 201 266.8 201C249 201 231 201 213.2 201C195.3 201 177.7 201 160 201C142.3 201 124.7 201 106.8 201C89 201 71 201 53.2 201C35.3 201 17.7 201 8.8 201L0 201Z" fill="#cb2c40"></path><path d="M0 137L8.8 140.5C17.7 144 35.3 151 53.2 148.2C71 145.3 89 132.7 106.8 133.2C124.7 133.7 142.3 147.3 160 148.5C177.7 149.7 195.3 138.3 213.2 138.5C231 138.7 249 150.3 266.8 148.7C284.7 147 302.3 132 320 124.3C337.7 116.7 355.3 116.3 373.2 123.8C391 131.3 409 146.7 426.8 150.3C444.7 154 462.3 146 480 141.8C497.7 137.7 515.3 137.3 533.2 134.2C551 131 569 125 586.8 123C604.7 121 622.3 123 640 123.5C657.7 124 675.3 123 693.2 128.5C711 134 729 146 746.8 146.8C764.7 147.7 782.3 137.3 800 136.7C817.7 136 835.3 145 853.2 150.5C871 156 889 158 906.8 152.8C924.7 147.7 942.3 135.3 951.2 129.2L960 123L960 201L951.2 201C942.3 201 924.7 201 906.8 201C889 201 871 201 853.2 201C835.3 201 817.7 201 800 201C782.3 201 764.7 201 746.8 201C729 201 711 201 693.2 201C675.3 201 657.7 201 640 201C622.3 201 604.7 201 586.8 201C569 201 551 201 533.2 201C515.3 201 497.7 201 480 201C462.3 201 444.7 201 426.8 201C409 201 391 201 373.2 201C355.3 201 337.7 201 320 201C302.3 201 284.7 201 266.8 201C249 201 231 201 213.2 201C195.3 201 177.7 201 160 201C142.3 201 124.7 201 106.8 201C89 201 71 201 53.2 201C35.3 201 17.7 201 8.8 201L0 201Z" fill="#b82041"></path><path d="M0 162L8.8 163.7C17.7 165.3 35.3 168.7 53.2 166.7C71 164.7 89 157.3 106.8 152.8C124.7 148.3 142.3 146.7 160 147.7C177.7 148.7 195.3 152.3 213.2 155.2C231 158 249 160 266.8 157.8C284.7 155.7 302.3 149.3 320 150.7C337.7 152 355.3 161 373.2 161.8C391 162.7 409 155.3 426.8 151C444.7 146.7 462.3 145.3 480 144.8C497.7 144.3 515.3 144.7 533.2 147C551 149.3 569 153.7 586.8 157.3C604.7 161 622.3 164 640 164.7C657.7 165.3 675.3 163.7 693.2 164.2C711 164.7 729 167.3 746.8 167.8C764.7 168.3 782.3 166.7 800 162.7C817.7 158.7 835.3 152.3 853.2 148C871 143.7 889 141.3 906.8 144.8C924.7 148.3 942.3 157.7 951.2 162.3L960 167L960 201L951.2 201C942.3 201 924.7 201 906.8 201C889 201 871 201 853.2 201C835.3 201 817.7 201 800 201C782.3 201 764.7 201 746.8 201C729 201 711 201 693.2 201C675.3 201 657.7 201 640 201C622.3 201 604.7 201 586.8 201C569 201 551 201 533.2 201C515.3 201 497.7 201 480 201C462.3 201 444.7 201 426.8 201C409 201 391 201 373.2 201C355.3 201 337.7 201 320 201C302.3 201 284.7 201 266.8 201C249 201 231 201 213.2 201C195.3 201 177.7 201 160 201C142.3 201 124.7 201 106.8 201C89 201 71 201 53.2 201C35.3 201 17.7 201 8.8 201L0 201Z" fill="#a41540"></path><path d="M0 162L8.8 165.5C17.7 169 35.3 176 53.2 177.5C71 179 89 175 106.8 172.5C124.7 170 142.3 169 160 167.7C177.7 166.3 195.3 164.7 213.2 164C231 163.3 249 163.7 266.8 165.7C284.7 167.7 302.3 171.3 320 170.7C337.7 170 355.3 165 373.2 164.5C391 164 409 168 426.8 168.5C444.7 169 462.3 166 480 164.7C497.7 163.3 515.3 163.7 533.2 166.7C551 169.7 569 175.3 586.8 176.5C604.7 177.7 622.3 174.3 640 175.5C657.7 176.7 675.3 182.3 693.2 185.3C711 188.3 729 188.7 746.8 185.2C764.7 181.7 782.3 174.3 800 172.2C817.7 170 835.3 173 853.2 174.8C871 176.7 889 177.3 906.8 177C924.7 176.7 942.3 175.3 951.2 174.7L960 174L960 201L951.2 201C942.3 201 924.7 201 906.8 201C889 201 871 201 853.2 201C835.3 201 817.7 201 800 201C782.3 201 764.7 201 746.8 201C729 201 711 201 693.2 201C675.3 201 657.7 201 640 201C622.3 201 604.7 201 586.8 201C569 201 551 201 533.2 201C515.3 201 497.7 201 480 201C462.3 201 444.7 201 426.8 201C409 201 391 201 373.2 201C355.3 201 337.7 201 320 201C302.3 201 284.7 201 266.8 201C249 201 231 201 213.2 201C195.3 201 177.7 201 160 201C142.3 201 124.7 201 106.8 201C89 201 71 201 53.2 201C35.3 201 17.7 201 8.8 201L0 201Z" fill="#900c3e"></path></svg>